<?xml version="1.0" encoding="UTF-8" standalone="no"?>
<!-- Created with Inkscape (http://www.inkscape.org/) -->

<svg
   xmlns:dc="http://purl.org/dc/elements/1.1/"
   xmlns:cc="http://creativecommons.org/ns#"
   xmlns:rdf="http://www.w3.org/1999/02/22-rdf-syntax-ns#"
   xmlns:svg="http://www.w3.org/2000/svg"
   xmlns="http://www.w3.org/2000/svg"
   xmlns:xlink="http://www.w3.org/1999/xlink"
   xmlns:sodipodi="http://sodipodi.sourceforge.net/DTD/sodipodi-0.dtd"
   xmlns:inkscape="http://www.inkscape.org/namespaces/inkscape"
   width="19"
   height="19"
   id="svg5932"
   version="1.1"
   inkscape:version="0.48.4 r9939"
   viewBox="0 0 19 19"
   sodipodi:docname="maximize_unfocused_pressed.svg">
  <defs
     id="defs5934">
    <linearGradient
       inkscape:collect="always"
       xlink:href="#linearGradient5187"
       id="linearGradient5201"
       gradientUnits="userSpaceOnUse"
       gradientTransform="translate(-1072.3622,-1053.3622)"
       x1="2.0000153"
       y1="1062.8622"
       x2="16.999975"
       y2="1062.8622" />
    <linearGradient
       id="linearGradient5187"
       inkscape:collect="always">
      <stop
         id="stop4560"
         offset="0"
         style="stop-color:#fcfbf8;stop-opacity:1" />
      <stop
         id="stop4562"
         offset="1"
         style="stop-color:#fbf9f6;stop-opacity:1" />
    </linearGradient>
    <linearGradient
       inkscape:collect="always"
       xlink:href="#linearGradient4297"
       id="linearGradient5203"
       gradientUnits="userSpaceOnUse"
       gradientTransform="matrix(1.0357118,0,0,1.0357118,37.956735,-0.33926172)"
       x1="-1070.1036"
       y1="9.4999952"
       x2="-1055.6208"
       y2="9.4999952" />
    <linearGradient
       id="linearGradient4297">
      <stop
         style="stop-color:#ffffff;stop-opacity:1;"
         offset="0"
         id="stop4523" />
      <stop
         style="stop-color:#9f9f9f;stop-opacity:1;"
         offset="1"
         id="stop4525" />
    </linearGradient>
    <linearGradient
       inkscape:collect="always"
       xlink:href="#linearGradient4297"
       id="linearGradient5205"
       gradientUnits="userSpaceOnUse"
       gradientTransform="translate(3.4765625e-5,0)"
       x1="-1070.3622"
       y1="8.9999962"
       x2="-1055.3622"
       y2="8.9999962" />
  </defs>
  <sodipodi:namedview
     id="base"
     pagecolor="#ffffff"
     bordercolor="#666666"
     borderopacity="1.0"
     inkscape:pageopacity="0.0"
     inkscape:pageshadow="2"
     inkscape:zoom="15.839192"
     inkscape:cx="5.5350648"
     inkscape:cy="0.64901063"
     inkscape:document-units="px"
     inkscape:current-layer="layer1"
     showgrid="false"
     fit-margin-top="0"
     fit-margin-left="0"
     fit-margin-right="0"
     fit-margin-bottom="0"
     inkscape:window-width="1066"
     inkscape:window-height="814"
     inkscape:window-x="440"
     inkscape:window-y="93"
     inkscape:window-maximized="0" />
  <metadata
     id="metadata5937">
    <rdf:RDF>
      <cc:Work
         rdf:about="">
        <dc:format>image/svg+xml</dc:format>
        <dc:type
           rdf:resource="http://purl.org/dc/dcmitype/StillImage" />
        <dc:title />
      </cc:Work>
    </rdf:RDF>
  </metadata>
  <g
     inkscape:label="Layer 1"
     inkscape:groupmode="layer"
     id="layer1"
     transform="translate(-887.71427,17.209217)">
    <g
       style="display:inline"
       id="g5189"
       inkscape:export-filename="maximize.png"
       inkscape:export-xdpi="90"
       inkscape:export-ydpi="90"
       transform="translate(887.71428,-1070.5714)">
      <circle
         r="8.5"
         cy="1062.8622"
         cx="9.4999924"
         id="circle5191"
         style="color:#000000;fill:#d4d4d4;fill-opacity:1;fill-rule:nonzero;stroke:none;stroke-width:8;marker:none;visibility:visible;display:inline;overflow:visible;enable-background:accumulate"
         d="m 17.999992,1062.8622 c 0,4.6944 -3.805579,8.5 -8.4999996,8.5 -4.6944204,0 -8.50000003,-3.8056 -8.50000003,-8.5 0,-4.6944 3.80557963,-8.5 8.50000003,-8.5 4.6944206,0 8.4999996,3.8056 8.4999996,8.5 z" />
      <circle
         transform="matrix(0,-1,1,0,0,0)"
         style="color:#000000;fill:url(#linearGradient5201);fill-opacity:1;fill-rule:nonzero;stroke:none;stroke-width:8;marker:none;visibility:visible;display:inline;overflow:visible;enable-background:accumulate"
         id="circle5193"
         cx="-1062.8622"
         cy="9.4999952"
         r="7.49998"
         d="m -1055.3622,9.4999952 c 0,4.1421248 -3.3579,7.4999798 -7.5,7.4999798 -4.1421,0 -7.5,-3.357855 -7.5,-7.4999798 0,-4.1421245 3.3579,-7.4999799 7.5,-7.4999799 4.1421,0 7.5,3.3578554 7.5,7.4999799 z" />
      <circle
         transform="matrix(0,-1,1,0,0,0)"
         style="opacity:0.05;color:#000000;fill:none;stroke:url(#linearGradient5203);stroke-width:0.5;stroke-miterlimit:4;stroke-dasharray:none;marker:none;visibility:visible;display:inline;overflow:visible;enable-background:accumulate"
         id="circle5195"
         cx="-1062.8622"
         cy="9.4999952"
         r="7.24998"
         d="m -1055.6122,9.4999952 c 0,4.0040538 -3.2459,7.2499798 -7.25,7.2499798 -4.004,0 -7.25,-3.245926 -7.25,-7.2499798 0,-4.0040533 3.246,-7.2499799 7.25,-7.2499799 4.0041,0 7.25,3.2459266 7.25,7.2499799 z" />
      <circle
         r="6.9999976"
         cy="9.4999952"
         cx="-1062.8622"
         id="circle5197"
         style="opacity:0.05;color:#000000;fill:none;stroke:url(#linearGradient5205);stroke-width:1;stroke-miterlimit:4;stroke-dasharray:none;marker:none;visibility:visible;display:inline;overflow:visible;enable-background:accumulate"
         transform="matrix(0,-1,1,0,0,0)"
         d="m -1055.8622,9.4999952 c 0,3.8659918 -3.134,6.9999978 -7,6.9999978 -3.866,0 -7,-3.134006 -7,-6.9999978 0,-3.8659919 3.134,-6.9999976 7,-6.9999976 3.866,0 7,3.1340057 7,6.9999976 z" />
      <rect
         y="1053.3622"
         x="-7.3563765e-06"
         height="19"
         width="19"
         id="rect5199"
         style="color:#000000;fill:none;stroke:none;stroke-width:1;marker:none;visibility:visible;display:inline;overflow:visible;enable-background:accumulate" />
    </g>
    <path
       inkscape:connector-curvature="0"
       id="path5243"
       d="m 893.71427,-11.208178 0,0.5 0,6.4999998 7,0 0,-6.9999998 -7,0 z m 1,1 5,0 0,4.9999998 -5,0 0,-4.9999998 z"
       style="font-style:normal;font-variant:normal;font-weight:normal;font-stretch:normal;text-indent:0;text-align:start;text-decoration:none;line-height:normal;letter-spacing:normal;word-spacing:normal;text-transform:none;direction:ltr;block-progression:tb;writing-mode:lr-tb;text-anchor:start;baseline-shift:baseline;color:#000000;color-interpolation:sRGB;color-interpolation-filters:linearRGB;fill:#828282;fill-opacity:1;stroke:none;stroke-width:1;marker:none;visibility:visible;display:inline;overflow:visible;isolation:auto;mix-blend-mode:normal;enable-background:accumulate;clip-rule:nonzero;color-rendering:auto;image-rendering:auto;shape-rendering:auto;text-rendering:auto;font-family:sans-serif;-inkscape-font-specification:sans-serif" />
    <path
       sodipodi:type="arc"
       style="fill:#828282;fill-opacity:1"
       id="path3766"
       sodipodi:cx="9.6280165"
       sodipodi:cy="23.798225"
       sodipodi:rx="0.094701804"
       sodipodi:ry="0.31567267"
       d="m 9.7227183,23.798225 a 0.0947018,0.31567267 0 1 1 -0.1894036,0 0.0947018,0.31567267 0 1 1 0.1894036,0 z"
       transform="translate(887.71427,-17.209217)" />
  </g>
</svg>
