/* XPM */
static char * bottom_active_xpm[] = {
"3 2 3 1",
" 	c None",
".	c #E8E8E8",
"+	c #919191",
"...",
"+++"};
