/* XPM */
static char * title_4_inactive_xpm[] = {
"15 29 3 1",
" 	c None",
".	c #AAAAAA",
"+	c #E8E8E8",
"...............",
"+++++++++++++++",
"+++++++++++++++",
"+++++++++++++++",
"+++++++++++++++",
"+++++++++++++++",
"+++++++++++++++",
"+++++++++++++++",
"+++++++++++++++",
"+++++++++++++++",
"+++++++++++++++",
"+++++++++++++++",
"+++++++++++++++",
"+++++++++++++++",
"+++++++++++++++",
"+++++++++++++++",
"+++++++++++++++",
"+++++++++++++++",
"+++++++++++++++",
"+++++++++++++++",
"+++++++++++++++",
"+++++++++++++++",
"+++++++++++++++",
"+++++++++++++++",
"+++++++++++++++",
"+++++++++++++++",
"+++++++++++++++",
"+++++++++++++++",
"+++++++++++++++"};
