/* XPM */
static char * top_left_inactive_xpm[] = {
"10 29 9 1",
" 	c None",
".	c #999999",
"+	c #9B9B9B",
"@	c #969696",
"#	c #D0D0D0",
"$	c #E2E2E2",
"%	c #E8E8E8",
"&	c #ACACAC",
"*	c #A1A1A1",
"    .+...@",
"  .#$%%%%%",
" &%%%%%%%%",
" &%%%%%%%%",
"*%%%%%%%%%",
"+%%%%%%%%%",
"+%%%%%%%%%",
"+%%%%%%%%%",
"+%%%%%%%%%",
"+%%%%%%%%%",
"+%%%%%%%%%",
"+%%%%%%%%%",
"+%%%%%%%%%",
"+%%%%%%%%%",
"+%%%%%%%%%",
"+%%%%%%%%%",
"+%%%%%%%%%",
"+%%%%%%%%%",
"+%%%%%%%%%",
"+%%%%%%%%%",
"+%%%%%%%%%",
"+%%%%%%%%%",
"+%%%%%%%%%",
"+%%%%%%%%%",
"+%%%%%%%%%",
"+%%%%%%%%%",
"+%%%%%%%%%",
"+%%%%%%%%%",
"+%%%%%%%%%"};
