/* XPM */
static char * top_right_active_xpm[] = {
"10 29 5 1",
" 	c None",
".	c #919191",
"+	c #E8E8E8",
"@	c #D4D4D4",
"#	c #AEAEAE",
"......    ",
"++++++@.  ",
"++++++++# ",
"++++++++# ",
"+++++++++.",
"+++++++++.",
"+++++++++.",
"+++++++++.",
"+++++++++.",
"+++++++++.",
"+++++++++.",
"+++++++++.",
"+++++++++.",
"+++++++++.",
"+++++++++.",
"+++++++++.",
"+++++++++.",
"+++++++++.",
"+++++++++.",
"+++++++++.",
"+++++++++.",
"+++++++++.",
"+++++++++.",
"+++++++++.",
"+++++++++.",
"+++++++++.",
"+++++++++.",
"+++++++++.",
"+++++++++."};
